<svg version="1" xmlns="http://www.w3.org/2000/svg" width="24" height="24" viewBox="0 0 24 24"><g><path d="M1.5 0c-.276 0-.5.224-.5.5v23c0 .276.224.5.5.5s.5-.224.5-.5v-23c0-.276-.224-.5-.5-.5zM20.804 2.796c-.123-.094-.284-.125-.435-.085-.03.008-3.087.829-5.45.83-.812 0-1.436-.095-1.854-.283-.501-.225-.565-.523-.565-.758 0-.685-.352-1.833-2.704-1.833-2.574 0-6.305 1.306-6.462 1.362-.2.07-.334.259-.334.471v12c0 .162.079.314.211.408.133.094.303.117.455.063.037-.014 3.726-1.305 6.13-1.305 1.704 0 1.704.627 1.704.833 0 .938.603 2.055 3.473 2.055 2.488 0 5.528-.802 5.656-.836.219-.058.371-.256.371-.483v-12.042c0-.155-.072-.302-.196-.397zm-.804 12.049c-.881.211-3.16.71-5.027.71-1.128 0-2.473-.183-2.473-1.055 0-.685-.352-1.833-2.704-1.833-1.956 0-4.579.754-5.796 1.141v-10.949c.965-.316 3.815-1.193 5.796-1.193 1.704.001 1.704.628 1.704.834 0 .526.2 1.242 1.155 1.67.557.25 1.297.371 2.264.371 1.853 0 4.028-.457 5.081-.707v11.011z"/></g></svg>